<svg width="25" height="22" viewBox="0 0 25 22" fill="none" xmlns="http://www.w3.org/2000/svg">
<path d="M4.27251 17.3246L4.32944 17.0254L4.08962 16.8376C1.85643 15.0885 0.5 12.6831 0.5 10.0446C0.5 4.86988 5.7653 0.500888 12.5 0.500888C19.2337 0.500888 24.5 4.8699 24.5 10.0446C24.5 15.2195 19.2346 19.5893 12.5 19.5893C11.6198 19.5893 10.7557 19.5169 9.93259 19.3746L9.78156 19.3485L9.64185 19.4115C9.20829 19.6071 7.55975 20.3364 5.66334 20.8795C4.71498 21.1511 3.71743 21.3723 2.78695 21.4598C2.12162 21.5223 1.51197 21.5142 0.988088 21.4192C1.10688 21.3193 1.24912 21.2088 1.4149 21.0811C1.43293 21.0672 1.45121 21.0532 1.46972 21.0389C1.64446 20.9045 1.83905 20.7548 2.03856 20.5922C2.91132 19.8812 3.98333 18.8447 4.27251 17.3246Z" fill="white" stroke="white"/>
</svg>
