<svg width="29" height="24" viewBox="0 0 29 24" fill="none" xmlns="http://www.w3.org/2000/svg">
<path d="M16.5714 0C13.2752 0 10.1139 1.26428 7.7831 3.51472C5.45229 5.76515 4.14286 8.8174 4.14286 12H0L5.3719 17.1867L5.46857 17.3733L11.0476 12H6.90476C6.90476 6.84 11.2271 2.66667 16.5714 2.66667C21.9157 2.66667 26.2381 6.84 26.2381 12C26.2381 17.16 21.9157 21.3333 16.5714 21.3333C13.9062 21.3333 11.4895 20.28 9.74952 18.5867L7.78857 20.48C8.93948 21.5973 10.3081 22.4836 11.8155 23.0878C13.3229 23.6919 14.9393 24.002 16.5714 24C19.8677 24 23.0289 22.7357 25.3598 20.4853C27.6906 18.2348 29 15.1826 29 12C29 8.8174 27.6906 5.76515 25.3598 3.51472C23.0289 1.26428 19.8677 4.74244e-08 16.5714 0ZM15.1905 6.66666V13.3333L21.101 16.72L22.0952 15.1067L17.2619 12.3333V6.66666H15.1905Z" fill="black"/>
</svg>
